#!OML:ASF E:\emotionWalksFemale\Project 1\Capture day 1\Session 1\Female1.ASF
:FULLY-SPECIFIED
:DEGREES
2313
root 9.37577 15.543 8.63216 -0.164299 7.11572 -0.935839
lowerback 8.16855 0.788436 -0.635873
upperback 1.03455 0.975927 -0.474343
thorax -3.51046 0.490999 -0.240894
lowerneck -5.68109 -3.58647 -4.31156
upperneck 46.2835 -6.88015 5.6545
head 19.0853 -2.77642 2.44155
rclavicle -4.72114e-016 2.10712e-014
rhumerus -39.3924 0.351916 -83.1171
rradius 30.0337
rwrist 19.787
rhand 0.508761 -49.9544
rfingers 7.12502
rthumb 26.0776 -78.1842
lclavicle -4.72114e-016 2.10712e-014
lhumerus -34.0424 4.96269 83.4332
lradius 36.0296
lwrist -13.1394
lhand -5.12102 -32.9632
lfingers 7.12502
lthumb 20.6771 -4.04463
rfemur -11.9974 20.5536 27.2799
rtibia 18.7773
rfoot -18.303 -28.8513
rtoes 3.59171
lfemur -6.08613 -2.80102 -21.1342
ltibia 52.4535
lfoot 5.66475 -9.62079
ltoes 10.0455
2314
root 9.36103 15.5431 8.70347 -0.261153 7.12111 -1.09275
lowerback 8.08732 0.76883 -0.500772
upperback 1.17778 0.966018 -0.409008
thorax -3.3157 0.484607 -0.245519
lowerneck -5.75074 -3.58741 -4.38128
upperneck 46.1685 -6.87215 5.69072
head 19.0317 -2.78032 2.46782
rclavicle 3.47873e-016 -3.18055e-015
rhumerus -39.063 0.453712 -83.1301
rradius 30.2039
rwrist 19.6642
rhand 0.290716 -50.0083
rfingers 7.12502
rthumb 25.8688 -78.2687
lclavicle 3.47873e-016 -3.18055e-015
lhumerus -33.7981 4.90928 83.4369
lradius 36.1392
lwrist -12.9217
lhand -5.2139 -33.2133
lfingers 7.12502
lthumb 20.5879 -4.28511
rfemur -11.5006 20.4248 27.6936
rtibia 18.5916
rfoot -18.3812 -28.6858
rtoes 2.98377
lfemur -6.43148 -2.75241 -20.8021
ltibia 53.4788
lfoot 6.6615 -9.62268
ltoes 10.289
2315
root 9.3467 15.5413 8.77314 -0.344983 7.16554 -1.17893
lowerback 8.19154 0.753063 -0.373395
upperback 1.19194 0.955358 -0.414436
thorax -3.35696 0.477756 -0.322959
lowerneck -5.72228 -3.57937 -4.34845
upperneck 46.1965 -6.85742 5.66676
head 19.0378 -2.772 2.45394
rclavicle 1.36664e-015 1.59028e-015
rhumerus -38.9629 0.330826 -83.1727
rradius 30.3682
rwrist 19.5246
rhand -0.350209 -50.0771
rfingers 7.12502
rthumb 25.2549 -78.4256
lclavicle 1.36664e-015 1.59028e-015
lhumerus -33.9758 4.69925 83.4266
lradius 36.4835
lwrist -12.9259
lhand -5.56596 -33.6246
lfingers 7.12502
lthumb 20.2496 -4.66012
rfemur -11.0257 20.3886 28.0072
rtibia 18.4333
rfoot -18.5349 -28.6257
rtoes 5.79112
lfemur -6.74915 -2.6422 -20.5568
ltibia 54.528
lfoot 7.45954 -9.79142
ltoes 8.33675
2316
root 9.33137 15.5408 8.84183 -0.410453 7.19808 -1.2704
lowerback 8.26015 0.7354 -0.202974
upperback 1.23259 0.946043 -0.435996
thorax -3.35 0.47103 -0.440608
lowerneck -5.73358 -3.57286 -4.50598
upperneck 46.1867 -6.89456 5.86714
head 19.062 -2.79088 2.57573
rclavicle 1.12313e-014 -2.38542e-015
rhumerus -38.709 0.298075 -83.2858
rradius 30.3665
rwrist 19.3107
rhand -0.497172 -50.2187
rfingers 7.12502
rthumb 25.1141 -78.587
lclavicle 1.12313e-014 -2.38542e-015
lhumerus -33.8814 4.73005 83.3619
lradius 36.5534
lwrist -13.0566
lhand -5.66209 -33.5753
lfingers 7.12502
lthumb 20.1572 -4.60108
rfemur -10.6417 20.0696 28.3696
rtibia 18.3417
rfoot -17.8814 -28.6965
rtoes 5.34522
lfemur -7.16923 -2.59637 -20.3313
ltibia 55.5786
lfoot 8.30189 -9.61738
ltoes 6.91567
2317
root 9.31955 15.5456 8.90738 -0.41791 7.2729 -1.36494
lowerback 8.24243 0.678594 0.00490938
upperback 1.28365 0.888738 -0.451838
thorax -3.28415 0.440306 -0.566781
lowerneck -5.83447 -3.55777 -4.54796
upperneck 46.2666 -6.89567 5.9381
head 19.1532 -2.78881 2.62076
rclavicle -2.5842e-015 -6.36111e-015
rhumerus -38.373 0.196812 -83.3272
rradius 30.3441
rwrist 19.2339
rhand -0.41721 -50.2727
rfingers 7.12502
rthumb 25.1907 -78.6302
lclavicle -2.5842e-015 -6.36111e-015
lhumerus -33.6162 4.86306 83.2856
lradius 36.5711
lwrist -12.8959
lhand -5.4465 -33.3263
lfingers 7.12502
lthumb 20.3644 -4.37408
rfemur -10.3002 19.6045 28.6456
rtibia 18.1768
rfoot -17.3485 -28.4188
rtoes 4.14944
lfemur -7.77718 -2.64036 -20.1272
ltibia 56.6332
lfoot 9.31769 -9.18648
ltoes 8.15258
2318
root 9.30928 15.5494 8.96943 -0.466942 7.30428 -1.54331
lowerback 8.27595 0.657027 0.268067
upperback 1.32475 0.884156 -0.432935
thorax -3.25663 0.435353 -0.694746
lowerneck -5.792 -3.5968 -4.45897
upperneck 46.3325 -6.97001 5.90232
head 19.1872 -2.80818 2.57724
rclavicle -2.98177e-016 -6.36111e-015
rhumerus -38.1886 0.110711 -83.332
rradius 30.448
rwrist 18.9324
rhand -1.28075 -50.143
rfingers 7.12502
rthumb 24.3631 -78.6143
lclavicle -2.98177e-016 -6.36111e-015
lhumerus -33.5488 4.83628 83.2709
lradius 36.7928
lwrist -12.5551
lhand -5.31052 -33.2313
lfingers 7.12502
lthumb 20.495 -4.29303
rfemur -9.92203 19.3674 28.9231
rtibia 17.9812
rfoot -17.8021 -27.7355
rtoes 10.278
lfemur -8.36097 -2.57 -19.8307
ltibia 57.6841
lfoot 10.4186 -9.01518
ltoes 9.48983
2319
root 9.29399 15.5459 9.03427 -0.630393 7.25572 -1.91313
lowerback 8.34534 0.647959 0.575937
upperback 1.41557 0.904391 -0.301306
thorax -3.19833 0.443167 -0.734121
lowerneck -5.87298 -3.53995 -4.20611
upperneck 46.3147 -6.72051 5.41899
head 19.1211 -2.71894 2.33019
rclavicle 1.24737e-014 2.38542e-015
rhumerus -38.0336 0.268882 -83.353
rradius 30.5995
rwrist 18.4949
rhand -2.46283 -49.9001
rfingers 7.12502
rthumb 23.2294 -78.5191
lclavicle 1.24737e-014 2.38542e-015
lhumerus -33.3295 4.93444 83.2503
lradius 36.6962
lwrist -12.5034
lhand -5.61792 -33.2772
lfingers 7.12502
lthumb 20.1996 -4.30746
rfemur -9.43037 19.2347 29.5218
rtibia 17.7658
rfoot -17.9574 -27.3965
rtoes 4.80404
lfemur -8.85146 -2.45015 -19.2939
ltibia 58.7907
lfoot 11.3286 -8.98811
ltoes 10.1713
